<svg width="193" height="44" viewBox="0 0 193 44" fill="none" xmlns="http://www.w3.org/2000/svg">
<path d="M15.64 20.38C14.32 20.38 13.1667 20.1533 12.18 19.7C11.2067 19.2333 10.4 18.6267 9.76 17.88C9.12 17.12 8.64 16.3 8.32 15.42C8.01333 14.54 7.86 13.6933 7.86 12.88V12.44C7.86 11.5333 8.02 10.64 8.34 9.76C8.67333 8.86667 9.16667 8.06 9.82 7.34C10.4733 6.62 11.2867 6.04667 12.26 5.62C13.2333 5.18 14.36 4.96 15.64 4.96C16.92 4.96 18.0467 5.18 19.02 5.62C19.9933 6.04667 20.8067 6.62 21.46 7.34C22.1133 8.06 22.6067 8.86667 22.94 9.76C23.2733 10.64 23.44 11.5333 23.44 12.44V12.88C23.44 13.6933 23.28 14.54 22.96 15.42C22.64 16.3 22.16 17.12 21.52 17.88C20.88 18.6267 20.0667 19.2333 19.08 19.7C18.1067 20.1533 16.96 20.38 15.64 20.38ZM15.64 17.32C16.3333 17.32 16.9533 17.2 17.5 16.96C18.06 16.72 18.5333 16.3867 18.92 15.96C19.32 15.5333 19.62 15.04 19.82 14.48C20.02 13.92 20.12 13.32 20.12 12.68C20.12 12 20.0133 11.38 19.8 10.82C19.6 10.2467 19.3 9.75333 18.9 9.34C18.5133 8.91333 18.0467 8.58667 17.5 8.36C16.9533 8.13333 16.3333 8.02 15.64 8.02C14.9467 8.02 14.3267 8.13333 13.78 8.36C13.2333 8.58667 12.76 8.91333 12.36 9.34C11.9733 9.75333 11.68 10.2467 11.48 10.82C11.28 11.38 11.18 12 11.18 12.68C11.18 13.32 11.28 13.92 11.48 14.48C11.68 15.04 11.9733 15.5333 12.36 15.96C12.76 16.3867 13.2333 16.72 13.78 16.96C14.3267 17.2 14.9467 17.32 15.64 17.32ZM26.9252 20V5.4H32.3052L37.8052 17.34H38.4852L38.0852 17.7V5.4H41.1652V20H35.7452L30.2452 8.06H29.5652L29.9652 7.7V20H26.9252ZM45.4447 20V5.4H48.7247V20H45.4447ZM48.3247 20V17.12H54.4447V20H48.3247ZM57.637 20V5.4H60.917V20H57.637ZM65.2377 20V5.4H70.6177L76.1177 17.34H76.7977L76.3977 17.7V5.4H79.4777V20H74.0577L68.5577 8.06H67.8777L68.2777 7.7V20H65.2377ZM83.7572 20V5.4H86.9572V20H83.7572ZM86.5572 20V17.28H92.9372V20H86.5572ZM86.5572 13.94V11.22H92.4772V13.94H86.5572ZM86.5572 8.12V5.4H92.7972V8.12H86.5572ZM108.531 20.38C107.211 20.38 106.078 20.1533 105.131 19.7C104.185 19.2333 103.411 18.6267 102.811 17.88C102.211 17.12 101.765 16.3067 101.471 15.44C101.191 14.56 101.051 13.7067 101.051 12.88V12.44C101.051 11.5333 101.198 10.64 101.491 9.76C101.785 8.86667 102.231 8.06 102.831 7.34C103.445 6.62 104.211 6.04667 105.131 5.62C106.065 5.18 107.165 4.96 108.431 4.96C109.751 4.96 110.918 5.20667 111.931 5.7C112.945 6.19333 113.751 6.88 114.351 7.76C114.965 8.62667 115.325 9.64667 115.431 10.82H112.131C112.038 10.2333 111.825 9.73333 111.491 9.32C111.158 8.90667 110.725 8.58667 110.191 8.36C109.671 8.13333 109.085 8.02 108.431 8.02C107.778 8.02 107.198 8.13333 106.691 8.36C106.185 8.58667 105.758 8.90667 105.411 9.32C105.078 9.73333 104.818 10.2267 104.631 10.8C104.458 11.36 104.371 11.9867 104.371 12.68C104.371 13.36 104.458 13.9867 104.631 14.56C104.818 15.12 105.085 15.6133 105.431 16.04C105.791 16.4533 106.231 16.7733 106.751 17C107.271 17.2133 107.865 17.32 108.531 17.32C109.545 17.32 110.398 17.0733 111.091 16.58C111.798 16.0867 112.225 15.4067 112.371 14.54H115.651C115.531 15.6067 115.171 16.5867 114.571 17.48C113.985 18.36 113.178 19.0667 112.151 19.6C111.138 20.12 109.931 20.38 108.531 20.38ZM118.868 20V5.4H122.148V20H118.868ZM126.468 20V5.4H131.848L137.348 17.34H138.028L137.628 17.7V5.4H140.708V20H135.288L129.788 8.06H129.108L129.508 7.7V20H126.468ZM144.988 20V5.4H148.188V20H144.988ZM147.788 20V17.28H154.168V20H147.788ZM147.788 13.94V11.22H153.708V13.94H147.788ZM147.788 8.12V5.4H154.028V8.12H147.788ZM157.863 20V5.4H162.383L165.723 13.6H166.103L169.403 5.4H174.003V20H170.763V7.54L171.223 7.58L167.363 17.04H164.243L160.363 7.58L160.863 7.54V20H157.863ZM176.897 20L181.717 5.4H187.017L192.017 20H188.617L184.577 7.66L185.617 8.08H183.037L184.117 7.66L180.177 20H176.897ZM180.557 16.38L181.557 13.66H187.277L188.297 16.38H180.557Z" fill="white"/>
<path d="M10.358 38.8V28.594H11.198V31.772L10.946 31.8C10.9833 31.0533 11.142 30.4233 11.422 29.91C11.7113 29.3967 12.0987 29.0093 12.584 28.748C13.0787 28.4773 13.6293 28.342 14.236 28.342C14.7773 28.342 15.2673 28.4493 15.706 28.664C16.154 28.8693 16.532 29.154 16.84 29.518C17.1573 29.8727 17.3953 30.2833 17.554 30.75C17.722 31.2073 17.806 31.688 17.806 32.192V32.388C17.806 32.892 17.722 33.3773 17.554 33.844C17.386 34.3013 17.1433 34.712 16.826 35.076C16.518 35.4307 16.14 35.7153 15.692 35.93C15.2533 36.1353 14.7587 36.238 14.208 36.238C13.62 36.238 13.0787 36.1073 12.584 35.846C12.0987 35.5753 11.702 35.1787 11.394 34.656C11.0953 34.1333 10.932 33.4893 10.904 32.724L11.408 33.774V38.8H10.358ZM14.068 35.314C14.628 35.314 15.1087 35.1833 15.51 34.922C15.9113 34.6513 16.2193 34.2873 16.434 33.83C16.6487 33.3633 16.756 32.85 16.756 32.29C16.756 31.7113 16.644 31.198 16.42 30.75C16.2053 30.2927 15.8973 29.9333 15.496 29.672C15.0947 29.4013 14.6187 29.266 14.068 29.266C13.564 29.266 13.1067 29.378 12.696 29.602C12.2853 29.826 11.9587 30.1433 11.716 30.554C11.4827 30.9553 11.366 31.4313 11.366 31.982V32.668C11.366 33.1907 11.4827 33.6527 11.716 34.054C11.9587 34.446 12.2853 34.754 12.696 34.978C13.1067 35.202 13.564 35.314 14.068 35.314ZM20.9283 36V28.594H21.7683V31.688H21.6843C21.6843 30.6053 21.9223 29.8073 22.3983 29.294C22.8743 28.7713 23.621 28.51 24.6383 28.51H24.8763V29.462H24.4423C23.6396 29.462 23.0283 29.672 22.6083 30.092C22.1883 30.5027 21.9783 31.1093 21.9783 31.912V36H20.9283ZM32.0555 36V33.774H31.8875V31.142C31.8875 30.5913 31.7428 30.1713 31.4535 29.882C31.1641 29.5833 30.7161 29.434 30.1095 29.434C29.8295 29.434 29.5448 29.4387 29.2555 29.448C28.9755 29.4573 28.7048 29.4713 28.4435 29.49C28.1915 29.4993 27.9675 29.5133 27.7715 29.532V28.608C27.9768 28.5893 28.1868 28.5707 28.4015 28.552C28.6161 28.5333 28.8355 28.524 29.0595 28.524C29.2928 28.5147 29.5168 28.51 29.7315 28.51C30.4875 28.51 31.0941 28.6033 31.5515 28.79C32.0181 28.9767 32.3588 29.2707 32.5735 29.672C32.7881 30.064 32.8955 30.5867 32.8955 31.24V36H32.0555ZM29.5495 36.196C29.0268 36.196 28.5648 36.1027 28.1635 35.916C27.7621 35.7293 27.4495 35.4587 27.2255 35.104C27.0108 34.7493 26.9035 34.32 26.9035 33.816C26.9035 33.3213 27.0155 32.9013 27.2395 32.556C27.4728 32.2107 27.8041 31.9493 28.2335 31.772C28.6721 31.5853 29.1995 31.492 29.8155 31.492H31.9855V32.29H29.7455C29.1575 32.29 28.7048 32.4347 28.3875 32.724C28.0795 33.004 27.9255 33.3727 27.9255 33.83C27.9255 34.2967 28.0888 34.67 28.4155 34.95C28.7421 35.2207 29.1855 35.356 29.7455 35.356C30.0908 35.356 30.4221 35.2953 30.7395 35.174C31.0568 35.0433 31.3228 34.8287 31.5375 34.53C31.7521 34.222 31.8688 33.802 31.8875 33.27L32.1955 33.704C32.1581 34.2547 32.0275 34.7167 31.8035 35.09C31.5795 35.454 31.2761 35.7293 30.8935 35.916C30.5108 36.1027 30.0628 36.196 29.5495 36.196ZM39.6402 36.238C39.0148 36.238 38.4688 36.1307 38.0022 35.916C37.5448 35.692 37.1622 35.3933 36.8542 35.02C36.5462 34.6373 36.3128 34.2173 36.1542 33.76C36.0048 33.3027 35.9302 32.8407 35.9302 32.374V32.178C35.9302 31.702 36.0048 31.24 36.1542 30.792C36.3128 30.3347 36.5462 29.924 36.8542 29.56C37.1622 29.1867 37.5448 28.8927 38.0022 28.678C38.4688 28.454 39.0055 28.342 39.6122 28.342C40.2282 28.342 40.7742 28.454 41.2502 28.678C41.7355 28.902 42.1275 29.2193 42.4262 29.63C42.7248 30.0407 42.9022 30.526 42.9582 31.086H41.9502C41.8662 30.5727 41.6235 30.148 41.2222 29.812C40.8302 29.4667 40.2935 29.294 39.6122 29.294C39.0242 29.294 38.5342 29.4293 38.1422 29.7C37.7595 29.9613 37.4702 30.3207 37.2742 30.778C37.0782 31.226 36.9802 31.7253 36.9802 32.276C36.9802 32.8173 37.0782 33.3213 37.2742 33.788C37.4702 34.2453 37.7642 34.614 38.1562 34.894C38.5482 35.1647 39.0428 35.3 39.6402 35.3C40.0975 35.3 40.4942 35.2207 40.8302 35.062C41.1755 34.894 41.4508 34.67 41.6562 34.39C41.8708 34.11 41.9968 33.802 42.0342 33.466H43.0422C43.0048 34.026 42.8275 34.516 42.5102 34.936C42.2022 35.3467 41.8008 35.6687 41.3062 35.902C40.8115 36.126 40.2562 36.238 39.6402 36.238ZM48.6554 36.084C48.142 36.084 47.6987 36.0093 47.3254 35.86C46.952 35.7107 46.6627 35.4587 46.4574 35.104C46.252 34.74 46.1494 34.2547 46.1494 33.648V26.256H47.1574V33.802C47.1574 34.2313 47.274 34.5627 47.5074 34.796C47.7407 35.02 48.072 35.132 48.5014 35.132H49.8314V36.084H48.6554ZM44.8194 29.392V28.594H49.8314V29.392H44.8194ZM53.252 36V28.594H54.288V36H53.252ZM52.062 29.434V28.594H54.288V29.434H52.062ZM53.476 27.222C53.224 27.222 53.0326 27.1567 52.902 27.026C52.7806 26.886 52.72 26.7133 52.72 26.508C52.72 26.3027 52.7806 26.1347 52.902 26.004C53.0326 25.864 53.224 25.794 53.476 25.794C53.728 25.794 53.9146 25.864 54.036 26.004C54.1573 26.1347 54.218 26.3027 54.218 26.508C54.218 26.7133 54.1573 26.886 54.036 27.026C53.9146 27.1567 53.728 27.222 53.476 27.222ZM61.1655 36.238C60.5402 36.238 59.9942 36.1307 59.5275 35.916C59.0702 35.692 58.6875 35.3933 58.3795 35.02C58.0715 34.6373 57.8382 34.2173 57.6795 33.76C57.5302 33.3027 57.4555 32.8407 57.4555 32.374V32.178C57.4555 31.702 57.5302 31.24 57.6795 30.792C57.8382 30.3347 58.0715 29.924 58.3795 29.56C58.6875 29.1867 59.0702 28.8927 59.5275 28.678C59.9942 28.454 60.5309 28.342 61.1375 28.342C61.7535 28.342 62.2995 28.454 62.7755 28.678C63.2609 28.902 63.6529 29.2193 63.9515 29.63C64.2502 30.0407 64.4275 30.526 64.4835 31.086H63.4755C63.3915 30.5727 63.1489 30.148 62.7475 29.812C62.3555 29.4667 61.8189 29.294 61.1375 29.294C60.5495 29.294 60.0595 29.4293 59.6675 29.7C59.2849 29.9613 58.9955 30.3207 58.7995 30.778C58.6035 31.226 58.5055 31.7253 58.5055 32.276C58.5055 32.8173 58.6035 33.3213 58.7995 33.788C58.9955 34.2453 59.2895 34.614 59.6815 34.894C60.0735 35.1647 60.5682 35.3 61.1655 35.3C61.6229 35.3 62.0195 35.2207 62.3555 35.062C62.7009 34.894 62.9762 34.67 63.1815 34.39C63.3962 34.11 63.5222 33.802 63.5595 33.466H64.5675C64.5302 34.026 64.3529 34.516 64.0355 34.936C63.7275 35.3467 63.3262 35.6687 62.8315 35.902C62.3369 36.126 61.7815 36.238 61.1655 36.238ZM70.5868 36.238C69.9521 36.238 69.4014 36.1307 68.9348 35.916C68.4681 35.692 68.0854 35.398 67.7868 35.034C67.4881 34.6607 67.2641 34.2453 67.1148 33.788C66.9748 33.3307 66.9048 32.8593 66.9048 32.374V32.178C66.9048 31.702 66.9748 31.2353 67.1148 30.778C67.2641 30.3207 67.4881 29.91 67.7868 29.546C68.0854 29.182 68.4588 28.8927 68.9068 28.678C69.3641 28.454 69.8961 28.342 70.5028 28.342C71.2774 28.342 71.9214 28.5147 72.4348 28.86C72.9574 29.2053 73.3494 29.6487 73.6108 30.19C73.8721 30.722 74.0028 31.296 74.0028 31.912V32.458H67.3808V31.646H73.2748L73.0088 32.052C73.0088 31.5013 72.9108 31.0207 72.7148 30.61C72.5281 30.19 72.2481 29.8633 71.8748 29.63C71.5108 29.3873 71.0534 29.266 70.5028 29.266C69.9241 29.266 69.4434 29.4013 69.0608 29.672C68.6781 29.9427 68.3888 30.302 68.1928 30.75C68.0061 31.198 67.9128 31.7067 67.9128 32.276C67.9128 32.836 68.0061 33.3493 68.1928 33.816C68.3888 34.2733 68.6828 34.6373 69.0748 34.908C69.4761 35.1787 69.9801 35.314 70.5868 35.314C71.2308 35.314 71.7534 35.1693 72.1548 34.88C72.5561 34.5813 72.8034 34.2313 72.8968 33.83H73.8768C73.7834 34.3247 73.5874 34.754 73.2888 35.118C72.9901 35.4727 72.6121 35.748 72.1548 35.944C71.6974 36.14 71.1748 36.238 70.5868 36.238ZM81.2916 38.8V28.594H82.1316V31.772L81.8796 31.8C81.9169 31.0533 82.0756 30.4233 82.3556 29.91C82.6449 29.3967 83.0323 29.0093 83.5176 28.748C84.0123 28.4773 84.5629 28.342 85.1696 28.342C85.7109 28.342 86.2009 28.4493 86.6396 28.664C87.0876 28.8693 87.4656 29.154 87.7736 29.518C88.0909 29.8727 88.3289 30.2833 88.4876 30.75C88.6556 31.2073 88.7396 31.688 88.7396 32.192V32.388C88.7396 32.892 88.6556 33.3773 88.4876 33.844C88.3196 34.3013 88.0769 34.712 87.7596 35.076C87.4516 35.4307 87.0736 35.7153 86.6256 35.93C86.1869 36.1353 85.6923 36.238 85.1416 36.238C84.5536 36.238 84.0123 36.1073 83.5176 35.846C83.0323 35.5753 82.6356 35.1787 82.3276 34.656C82.0289 34.1333 81.8656 33.4893 81.8376 32.724L82.3416 33.774V38.8H81.2916ZM85.0016 35.314C85.5616 35.314 86.0423 35.1833 86.4436 34.922C86.8449 34.6513 87.1529 34.2873 87.3676 33.83C87.5823 33.3633 87.6896 32.85 87.6896 32.29C87.6896 31.7113 87.5776 31.198 87.3536 30.75C87.1389 30.2927 86.8309 29.9333 86.4296 29.672C86.0283 29.4013 85.5523 29.266 85.0016 29.266C84.4976 29.266 84.0403 29.378 83.6296 29.602C83.2189 29.826 82.8923 30.1433 82.6496 30.554C82.4163 30.9553 82.2996 31.4313 82.2996 31.982V32.668C82.2996 33.1907 82.4163 33.6527 82.6496 34.054C82.8923 34.446 83.2189 34.754 83.6296 34.978C84.0403 35.202 84.4976 35.314 85.0016 35.314ZM91.8619 36V28.594H92.7019V31.688H92.6179C92.6179 30.6053 92.8559 29.8073 93.3319 29.294C93.8079 28.7713 94.5546 28.51 95.5719 28.51H95.8099V29.462H95.3759C94.5732 29.462 93.9619 29.672 93.5419 30.092C93.1219 30.5027 92.9119 31.1093 92.9119 31.912V36H91.8619ZM101.731 36.238C101.096 36.238 100.536 36.1307 100.051 35.916C99.5747 35.692 99.1687 35.398 98.8327 35.034C98.506 34.6607 98.254 34.2453 98.0767 33.788C97.9087 33.3307 97.8247 32.864 97.8247 32.388V32.192C97.8247 31.716 97.9134 31.2493 98.0907 30.792C98.268 30.3253 98.5247 29.91 98.8607 29.546C99.1967 29.182 99.6027 28.8927 100.079 28.678C100.564 28.454 101.115 28.342 101.731 28.342C102.356 28.342 102.907 28.454 103.383 28.678C103.868 28.8927 104.279 29.182 104.615 29.546C104.951 29.91 105.203 30.3253 105.371 30.792C105.548 31.2493 105.637 31.716 105.637 32.192V32.388C105.637 32.864 105.553 33.3307 105.385 33.788C105.217 34.2453 104.965 34.6607 104.629 35.034C104.302 35.398 103.896 35.692 103.411 35.916C102.925 36.1307 102.365 36.238 101.731 36.238ZM101.731 35.3C102.347 35.3 102.865 35.1647 103.285 34.894C103.714 34.614 104.041 34.25 104.265 33.802C104.489 33.3447 104.601 32.8407 104.601 32.29C104.601 31.73 104.484 31.226 104.251 30.778C104.027 30.3207 103.7 29.9613 103.271 29.7C102.841 29.4293 102.328 29.294 101.731 29.294C101.143 29.294 100.634 29.4293 100.205 29.7C99.7754 29.9613 99.444 30.3207 99.2107 30.778C98.9867 31.226 98.8747 31.73 98.8747 32.29C98.8747 32.8407 98.9867 33.3447 99.2107 33.802C99.4347 34.25 99.7567 34.614 100.177 34.894C100.606 35.1647 101.124 35.3 101.731 35.3ZM107.378 38.842V37.904H108.218C108.582 37.904 108.857 37.7967 109.044 37.582C109.24 37.3767 109.338 37.078 109.338 36.686V28.594H110.346V36.49C110.346 37.0687 110.267 37.5307 110.108 37.876C109.959 38.2213 109.716 38.4687 109.38 38.618C109.044 38.7673 108.596 38.842 108.036 38.842H107.378ZM108.134 29.434V28.594H110.346V29.434H108.134ZM109.534 27.096C109.282 27.096 109.091 27.0307 108.96 26.9C108.839 26.76 108.778 26.5873 108.778 26.382C108.778 26.1767 108.839 26.0087 108.96 25.878C109.091 25.738 109.282 25.668 109.534 25.668C109.786 25.668 109.973 25.738 110.094 25.878C110.215 26.0087 110.276 26.1767 110.276 26.382C110.276 26.5873 110.215 26.76 110.094 26.9C109.973 27.0307 109.786 27.096 109.534 27.096ZM117.165 36.238C116.53 36.238 115.98 36.1307 115.513 35.916C115.046 35.692 114.664 35.398 114.365 35.034C114.066 34.6607 113.842 34.2453 113.693 33.788C113.553 33.3307 113.483 32.8593 113.483 32.374V32.178C113.483 31.702 113.553 31.2353 113.693 30.778C113.842 30.3207 114.066 29.91 114.365 29.546C114.664 29.182 115.037 28.8927 115.485 28.678C115.942 28.454 116.474 28.342 117.081 28.342C117.856 28.342 118.5 28.5147 119.013 28.86C119.536 29.2053 119.928 29.6487 120.189 30.19C120.45 30.722 120.581 31.296 120.581 31.912V32.458H113.959V31.646H119.853L119.587 32.052C119.587 31.5013 119.489 31.0207 119.293 30.61C119.106 30.19 118.826 29.8633 118.453 29.63C118.089 29.3873 117.632 29.266 117.081 29.266C116.502 29.266 116.022 29.4013 115.639 29.672C115.256 29.9427 114.967 30.302 114.771 30.75C114.584 31.198 114.491 31.7067 114.491 32.276C114.491 32.836 114.584 33.3493 114.771 33.816C114.967 34.2733 115.261 34.6373 115.653 34.908C116.054 35.1787 116.558 35.314 117.165 35.314C117.809 35.314 118.332 35.1693 118.733 34.88C119.134 34.5813 119.382 34.2313 119.475 33.83H120.455C120.362 34.3247 120.166 34.754 119.867 35.118C119.568 35.4727 119.19 35.748 118.733 35.944C118.276 36.14 117.753 36.238 117.165 36.238ZM126.724 36.238C126.099 36.238 125.553 36.1307 125.086 35.916C124.629 35.692 124.246 35.3933 123.938 35.02C123.63 34.6373 123.397 34.2173 123.238 33.76C123.089 33.3027 123.014 32.8407 123.014 32.374V32.178C123.014 31.702 123.089 31.24 123.238 30.792C123.397 30.3347 123.63 29.924 123.938 29.56C124.246 29.1867 124.629 28.8927 125.086 28.678C125.553 28.454 126.089 28.342 126.696 28.342C127.312 28.342 127.858 28.454 128.334 28.678C128.819 28.902 129.211 29.2193 129.51 29.63C129.809 30.0407 129.986 30.526 130.042 31.086H129.034C128.95 30.5727 128.707 30.148 128.306 29.812C127.914 29.4667 127.377 29.294 126.696 29.294C126.108 29.294 125.618 29.4293 125.226 29.7C124.843 29.9613 124.554 30.3207 124.358 30.778C124.162 31.226 124.064 31.7253 124.064 32.276C124.064 32.8173 124.162 33.3213 124.358 33.788C124.554 34.2453 124.848 34.614 125.24 34.894C125.632 35.1647 126.127 35.3 126.724 35.3C127.181 35.3 127.578 35.2207 127.914 35.062C128.259 34.894 128.535 34.67 128.74 34.39C128.955 34.11 129.081 33.802 129.118 33.466H130.126C130.089 34.026 129.911 34.516 129.594 34.936C129.286 35.3467 128.885 35.6687 128.39 35.902C127.895 36.126 127.34 36.238 126.724 36.238ZM135.739 36.084C135.226 36.084 134.783 36.0093 134.409 35.86C134.036 35.7107 133.747 35.4587 133.541 35.104C133.336 34.74 133.233 34.2547 133.233 33.648V26.256H134.241V33.802C134.241 34.2313 134.358 34.5627 134.591 34.796C134.825 35.02 135.156 35.132 135.585 35.132H136.915V36.084H135.739ZM131.903 29.392V28.594H136.915V29.392H131.903Z" fill="#CDCDCD"/>
<line x1="1.5" y1="36" x2="1.5" stroke="#CE080F" stroke-width="3"/>
</svg>
